<?xml version="1.0" encoding="utf-8"?>
<!-- Generator: Adobe Illustrator 16.0.0, SVG Export Plug-In . SVG Version: 6.00 Build 0)  -->
<!DOCTYPE svg PUBLIC "-//W3C//DTD SVG 1.1//EN" "http://www.w3.org/Graphics/SVG/1.1/DTD/svg11.dtd">
<svg version="1.1" id="Layer_1" xmlns="http://www.w3.org/2000/svg" xmlns:xlink="http://www.w3.org/1999/xlink" x="0px" y="0px"
	 width="128px" height="128px" viewBox="0 0 128 128" enable-background="new 0 0 128 128" xml:space="preserve">
<text transform="matrix(1 0 0 1 25.3599 113.0234)" fill="#ECF0F1" font-family="'Raleway-SemiBold'" font-size="16">Download</text>
<g>
	<path fill="#ECF0F1" d="M94,48c0,16.569-13.432,30-30,30c-16.569,0-30-13.431-30-30c0-16.568,13.431-30,30-30
		C80.568,18,94,31.432,94,48z M64,22.8c-13.917,0-25.2,11.282-25.2,25.2c0,13.917,11.283,25.2,25.2,25.2S89.2,61.917,89.2,48
		C89.2,34.082,77.917,22.8,64,22.8z"/>
	<g>
		<rect x="61" y="30.6" fill="#ECF0F1" width="6" height="24"/>
		<polygon fill="#ECF0F1" points="73,54.6 64,66.6 55,54.6 		"/>
	</g>
</g>
</svg>
