<?xml version="1.0" encoding="utf-8"?>
<!-- Generator: Adobe Illustrator 16.0.0, SVG Export Plug-In . SVG Version: 6.00 Build 0)  -->
<!DOCTYPE svg PUBLIC "-//W3C//DTD SVG 1.1//EN" "http://www.w3.org/Graphics/SVG/1.1/DTD/svg11.dtd">
<svg version="1.1" id="Layer_1" xmlns="http://www.w3.org/2000/svg" xmlns:xlink="http://www.w3.org/1999/xlink" x="0px" y="0px"
	 width="128px" height="128px" viewBox="0 0 128 128" enable-background="new 0 0 128 128" xml:space="preserve">
<g>
	<path fill="#2C3E50" d="M81.212,7H30.461c-5.5,0-10.5,4-10.5,9.5v90c0,5.5,5,10.5,10.5,10.5h66c5.5,0,9.5-5,9.5-10.5V31.749
		 M101.961,33.409V106.5c0,3.3-2.2,6.5-5.5,6.5h-66c-3.3,0-6.5-3.2-6.5-6.5v-90c0-3.3,3.2-5.5,6.5-5.5h49.096"/>
	<path fill="#2C3E50" d="M105.961,31.792h-19.25c-3.299,0-5.5-3.199-5.5-6.5V7h-4v18.292c0,5.5,4,10.5,9.5,10.5h19.25"/>
</g>
<text transform="matrix(1 0 0 1 37.0405 95.167)" fill="#2C3E50" font-family="'Raleway-SemiBold'" font-size="48">cv</text>
</svg>
